<?xml version="1.0" standalone="no"?><!DOCTYPE svg PUBLIC "-//W3C//DTD SVG 1.1//EN" "http://www.w3.org/Graphics/SVG/1.1/DTD/svg11.dtd"><svg t="1522397437353" class="icon" style="" viewBox="0 0 1024 1024" version="1.1" xmlns="http://www.w3.org/2000/svg" p-id="11553" xmlns:xlink="http://www.w3.org/1999/xlink" width="128" height="128"><defs><style type="text/css"></style></defs><path d="M837.908843 1004.852357v19.147643H186.091157V0h19.147643v1004.852357z" fill="#c20e22" p-id="11554"></path><path d="M837.908843 985.704714v19.147643H205.2388V0h19.147643v985.704714z" fill="#c20e22" p-id="11555"></path><path d="M837.908843 966.557071v19.147643H224.386443V0h19.147643v966.557071z" fill="#c20e22" p-id="11556"></path><path d="M837.908843 947.409427v19.147644h-594.374757V0h19.147644v947.409427z" fill="#c20e22" p-id="11557"></path><path d="M837.908843 928.261784v19.147643H262.68173V0H281.829373v928.261784z" fill="#c20e22" p-id="11558"></path><path d="M837.908843 909.114141v19.147643H281.829373V0h19.147643v909.114141z" fill="#c20e22" p-id="11559"></path><path d="M837.908843 889.966498v19.147643H300.977016V0h19.147643v889.966498z" fill="#c20e22" p-id="11560"></path><path d="M837.908843 870.818855v19.147643H320.124659V0h19.147643v870.818855z" fill="#c20e22" p-id="11561"></path><path d="M837.908843 851.671212v19.147643h-498.636541V0h19.147643v851.671212z" fill="#c20e22" p-id="11562"></path><path d="M837.908843 832.523568v19.147644H358.419945V0H377.567589v832.523568z" fill="#c20e22" p-id="11563"></path><path d="M837.908843 813.375925v19.147643H377.567589V0h19.147643v813.375925z" fill="#c20e22" p-id="11564"></path><path d="M837.908843 775.080639v19.147643H415.862875V0h19.147643v775.080639z" fill="#c20e22" p-id="11565"></path><path d="M837.908843 794.228282v19.147643H396.715232V0h19.147643v794.228282z" fill="#c20e22" p-id="11566"></path></svg>